<?xml version="1.0" encoding="UTF-8" standalone="no" ?>
<!DOCTYPE svg PUBLIC "-//W3C//DTD SVG 1.1//EN" "http://www.w3.org/Graphics/SVG/1.1/DTD/svg11.dtd">
<svg xmlns="http://www.w3.org/2000/svg" xmlns:xlink="http://www.w3.org/1999/xlink" version="1.1" width="1280" height="1024" viewBox="0 0 1280 1024" xml:space="preserve">
<desc>Created with Fabric.js 5.3.0</desc>
<defs>
</defs>
<g transform="matrix(1 0 0 1 640 512)" id="background-logo"  >
<rect style="stroke: none; stroke-width: 0; stroke-dasharray: none; stroke-linecap: butt; stroke-dashoffset: 0; stroke-linejoin: miter; stroke-miterlimit: 4; fill: rgb(255,255,255); fill-opacity: 0; fill-rule: nonzero; opacity: 1;"  paint-order="stroke"  x="-640" y="-512" rx="0" ry="0" width="1280" height="1024" />
</g>
<g transform="matrix(1.9211538461538462 0 0 1.9211538461538462 640 404.463552997853)" id="logo-logo"  >
<g style=""  paint-order="stroke"   >
		<g transform="matrix(0.20314129022795246 0 0 -0.20314129022795246 0 0)"  >
<path style="stroke: none; stroke-width: 1; stroke-dasharray: none; stroke-linecap: butt; stroke-dashoffset: 0; stroke-linejoin: miter; stroke-miterlimit: 4; fill: rgb(223,243,252); fill-rule: nonzero; opacity: 1;"  paint-order="stroke"  transform=" translate(-1624.8899999999999, -1479.8)" d="M 1838.19 1893.82 L 1411.6 1893.82 C 1387.8799999999999 1893.82 1368.58 1874.52 1368.58 1850.8 L 1368.58 1108.8 C 1368.58 1085.08 1387.8799999999999 1065.78 1411.6 1065.78 L 1838.1899999999998 1065.78 C 1861.8999999999999 1065.78 1881.1999999999998 1085.08 1881.1999999999998 1108.8 L 1881.1999999999998 1850.8 C 1881.1999999999998 1874.52 1861.8999999999999 1893.82 1838.1899999999998 1893.82" stroke-linecap="round" />
</g>
		<g transform="matrix(0.20314129022795246 0 0 -0.20314129022795246 -40.3814295079178 -59.019012357725956)"  >
<path style="stroke: none; stroke-width: 1; stroke-dasharray: none; stroke-linecap: butt; stroke-dashoffset: 0; stroke-linejoin: miter; stroke-miterlimit: 4; fill: rgb(21,145,198); fill-rule: nonzero; opacity: 1;"  paint-order="stroke"  transform=" translate(-1433.625, -1768.045)" d="M 1433.62 1687.97 L 1433.62 1687.97 C 1424.3899999999999 1687.97 1416.84 1695.52 1416.84 1704.75 L 1416.84 1831.33 C 1416.84 1840.57 1424.3899999999999 1848.12 1433.62 1848.12 C 1442.85 1848.12 1450.4099999999999 1840.57 1450.4099999999999 1831.33 L 1450.4099999999999 1704.75 C 1450.4099999999999 1695.52 1442.85 1687.97 1433.62 1687.97" stroke-linecap="round" />
</g>
		<g transform="matrix(0.20314129022795246 0 0 -0.20314129022795246 -40.3814295079178 9.318791424904134)"  >
<path style="stroke: none; stroke-width: 1; stroke-dasharray: none; stroke-linecap: butt; stroke-dashoffset: 0; stroke-linejoin: miter; stroke-miterlimit: 4; fill: rgb(21,145,198); fill-rule: nonzero; opacity: 1;"  paint-order="stroke"  transform=" translate(-1433.625, -1439.355)" d="M 1433.62 1320.58 L 1433.62 1320.58 C 1424.3899999999999 1320.58 1416.84 1328.1399999999999 1416.84 1337.37 L 1416.84 1541.34 C 1416.84 1550.57 1424.3899999999999 1558.1299999999999 1433.62 1558.1299999999999 C 1442.85 1558.1299999999999 1450.4099999999999 1550.57 1450.4099999999999 1541.34 L 1450.4099999999999 1337.37 C 1450.4099999999999 1328.1399999999999 1442.85 1320.58 1433.62 1320.58" stroke-linecap="round" />
</g>
		<g transform="matrix(0.20314129022795246 0 0 -0.20314129022795246 0 0)"  >
<path style="stroke: none; stroke-width: 1; stroke-dasharray: none; stroke-linecap: butt; stroke-dashoffset: 0; stroke-linejoin: miter; stroke-miterlimit: 4; fill: rgb(21,145,198); fill-rule: nonzero; opacity: 1;"  paint-order="stroke"  transform=" translate(-1624.9958509591584, -1481.0905000000002)" d="M 1881.2 1108.8 C 1881.2 1085.04 1861.94 1065.78 1838.18 1065.78 L 1411.6 1065.78 C 1387.84 1065.78 1368.58 1085.04 1368.58 1108.8 L 1368.58 1606.3799999999999 L 1724.3 1606.3799999999999 L 1770.73 1541.3 C 1776.1100000000001 1533.75 1786.59 1532 1794.13 1537.3799999999999 C 1801.68 1542.76 1803.43 1553.2399999999998 1798.0500000000002 1560.78 L 1765.5200000000002 1606.3799999999999 L 1828.8700000000001 1606.3799999999999 C 1838.14 1606.3799999999999 1845.65 1613.8899999999999 1845.65 1623.1599999999999 L 1845.65 1623.1699999999998 C 1845.65 1632.4399999999998 1838.14 1639.9499999999998 1828.8700000000001 1639.9499999999998 L 1764.8400000000001 1639.9499999999998 L 1798.46 1688.8799999999999 C 1803.71 1696.52 1801.77 1706.9599999999998 1794.13 1712.2099999999998 L 1794.13 1712.2199999999998 C 1786.49 1717.4699999999998 1776.0400000000002 1715.5299999999997 1770.7900000000002 1707.8899999999999 L 1724.1100000000001 1639.9499999999998 L 1368.5800000000002 1639.9499999999998 L 1368.5800000000002 1850.7999999999997 C 1368.5800000000002 1874.5599999999997 1387.8400000000001 1893.8199999999997 1411.6000000000001 1893.8199999999997 L 1838.19 1893.8199999999997 C 1861.94 1893.8199999999997 1881.2 1874.5599999999997 1881.2 1850.8099999999997 z M 1992.88 1074.86 L 1992.88 1074.8799999999999 C 1991.19 1083.9899999999998 1982.44 1089.9999999999998 1973.3300000000002 1088.31 L 1907.3200000000002 1076.07 C 1912.0400000000002 1086.01 1914.7700000000002 1097.08 1914.7700000000002 1108.8 L 1914.7700000000002 1850.8 C 1914.7700000000002 1863.29 1911.7000000000003 1875.06 1906.3700000000001 1885.48 L 1973.4 1874.27 C 1982.5400000000002 1872.74 1991.19 1878.91 1992.71 1888.05 C 1994.24 1897.2 1988.07 1905.84 1978.93 1907.37 L 1923.69 1916.61 L 1968.49 1961.4099999999999 C 1975.04 1967.9599999999998 1975.04 1978.59 1968.49 1985.1399999999999 L 1968.48 1985.1399999999999 C 1961.93 1991.6999999999998 1951.31 1991.6999999999998 1944.75 1985.1399999999999 L 1899.47 1939.86 L 1888.65 1998.24 C 1886.96 2007.35 1878.2 2013.3700000000001 1869.0900000000001 2011.68 L 1869.0800000000002 2011.68 C 1859.9700000000003 2009.99 1853.95 2001.23 1855.64 1992.1200000000001 L 1868.8400000000001 1920.94 C 1859.45 1925.06 1849.0900000000001 1927.39 1838.19 1927.39 L 1643.44 1927.39 L 1707.93 1973.39 C 1715.47 1978.7700000000002 1717.22 1989.25 1711.8400000000001 1996.7900000000002 L 1711.8400000000001 1996.8000000000002 C 1706.45 2004.3400000000001 1695.9700000000003 2006.1000000000001 1688.43 2000.7100000000003 L 1642.8400000000001 1968.2000000000003 L 1642.8400000000001 2031.5300000000002 C 1642.8400000000001 2040.8000000000002 1635.3300000000002 2048.3100000000004 1626.0600000000002 2048.3100000000004 L 1626.0500000000002 2048.3100000000004 C 1616.7800000000002 2048.3100000000004 1609.2700000000002 2040.8000000000004 1609.2700000000002 2031.5300000000004 L 1609.2700000000002 1967.5000000000005 L 1560.3400000000001 2001.1300000000006 C 1552.7 2006.3800000000006 1542.2600000000002 2004.4400000000005 1537.0100000000002 1996.8000000000006 L 1537.0000000000002 1996.7900000000006 C 1531.7500000000002 1989.1500000000005 1533.6900000000003 1978.7100000000007 1541.3300000000002 1973.4600000000007 L 1608.38 1927.3900000000008 L 1411.6 1927.3900000000008 C 1400.6799999999998 1927.3900000000008 1390.31 1925.0500000000009 1380.8999999999999 1920.9100000000008 L 1394.1299999999999 1992.3000000000009 C 1395.82 2001.4100000000008 1389.81 2010.1700000000008 1380.6899999999998 2011.8600000000008 L 1380.6899999999998 2011.8600000000008 C 1371.57 2013.5500000000009 1362.82 2007.5300000000009 1361.1299999999999 1998.4200000000008 L 1350.31 1940.0400000000006 L 1305.03 1985.3200000000006 C 1298.48 1991.8700000000006 1287.85 1991.8700000000006 1281.3 1985.3200000000006 L 1281.29 1985.3100000000006 C 1274.74 1978.7600000000007 1274.74 1968.1400000000006 1281.29 1961.5800000000006 L 1326.08 1916.8000000000006 L 1270.84 1907.5500000000006 C 1261.6999999999998 1906.0200000000007 1255.53 1897.3800000000006 1257.06 1888.2300000000007 L 1257.06 1888.2300000000007 C 1258.59 1879.0900000000006 1267.24 1872.9100000000008 1276.3799999999999 1874.4500000000007 L 1343.5 1885.6800000000007 C 1338.11 1875.2000000000007 1335.02 1863.3700000000008 1335.02 1850.8000000000006 L 1335.02 1108.8000000000006 C 1335.02 1097.9700000000007 1337.3 1087.6900000000007 1341.36 1078.3500000000006 L 1287.6399999999999 1088.3100000000006 C 1278.53 1090.0000000000007 1269.77 1083.9800000000007 1268.08 1074.8700000000006 L 1268.08 1074.8600000000006 C 1266.3899999999999 1065.7500000000007 1272.4099999999999 1056.9900000000007 1281.52 1055.3000000000006 L 1339.9 1044.4800000000007 L 1294.6200000000001 999.2110000000007 C 1288.0700000000002 992.6480000000007 1288.0700000000002 982.0310000000007 1294.6200000000001 975.4690000000007 L 1294.63 975.4690000000007 C 1301.18 968.9220000000007 1311.8100000000002 968.9220000000007 1318.3600000000001 975.4690000000007 L 1363.15 1020.2500000000007 L 1372.39 965.0200000000007 C 1373.92 955.8790000000007 1382.5700000000002 949.7110000000007 1391.71 951.2380000000006 L 1391.71 951.2380000000006 C 1400.8600000000001 952.7700000000007 1407.03 961.4220000000006 1405.5 970.5590000000007 L 1394.86 1034.1100000000006 C 1400.26 1032.9000000000005 1405.84 1032.2100000000005 1411.6 1032.2100000000005 L 1605.32 1032.2100000000005 L 1542.03 988.7190000000005 C 1534.3899999999999 983.4800000000005 1532.45 973.0310000000005 1537.7 965.3910000000005 L 1537.71 965.3790000000006 C 1542.96 957.7380000000006 1553.4 955.8090000000005 1561.04 961.0590000000005 L 1609.97 994.6800000000005 L 1609.97 930.6480000000005 C 1609.97 921.3790000000005 1617.48 913.8710000000004 1626.75 913.8710000000004 L 1626.76 913.8710000000004 C 1636.03 913.8710000000004 1643.54 921.3790000000005 1643.54 930.6480000000005 L 1643.54 993.9880000000005 L 1689.1299999999999 961.4690000000005 C 1696.6699999999998 956.0900000000005 1707.1499999999999 957.8400000000005 1712.54 965.3790000000005 L 1712.54 965.3910000000004 C 1717.92 972.9300000000004 1716.17 983.4100000000004 1708.62 988.8010000000004 L 1647.76 1032.2100000000005 L 1838.19 1032.2100000000005 C 1848.28 1032.2100000000005 1857.89 1034.2200000000005 1866.72 1037.7800000000004 L 1855.48 970.5590000000004 C 1853.95 961.4220000000005 1860.1200000000001 952.7700000000004 1869.26 951.2380000000004 C 1878.4 949.7110000000004 1887.05 955.8790000000004 1888.58 965.0200000000004 L 1897.82 1020.2600000000004 L 1942.61 975.4690000000005 C 1949.1699999999998 968.9220000000005 1959.79 968.9220000000005 1966.34 975.4690000000005 L 1966.35 975.4690000000005 C 1972.8999999999999 982.0310000000005 1972.8999999999999 992.6480000000005 1966.35 999.2110000000005 L 1921.07 1044.4800000000005 L 1979.4399999999998 1055.3100000000004 C 1988.5599999999997 1057.0000000000005 1994.57 1065.7500000000005 1992.8799999999999 1074.8600000000004" stroke-linecap="round" />
</g>
</g>
</g>
<g transform="matrix(1.9211538461538462 0 0 1.9211538461538462 640.1075846153847 723.5690635518597)" id="text-logo"  >
<g style=""  paint-order="stroke"   >
		<g transform="matrix(1 0 0 1 0 0)" id="text-logo-path-0"  >
<path style="stroke: rgb(255,255,255); stroke-width: 0; stroke-dasharray: none; stroke-linecap: butt; stroke-dashoffset: 0; stroke-linejoin: miter; stroke-miterlimit: 4; fill: rgb(21,145,198); fill-rule: nonzero; opacity: 1;"  paint-order="stroke"  transform=" translate(-192.275, 19.485000000000003)" d="M 10.3 -3.53 L 10.3 -16.24 L 26.54 -16.24 L 26.54 -3.53 C 26.54 -1.34 28.28 0.39 30.46 0.39 C 32.65 0.39 34.38 -1.34 34.38 -3.53 L 34.38 -35.67 C 34.38 -37.86 32.65 -39.59 30.46 -39.59 C 28.28 -39.59 26.54 -37.86 26.54 -35.67 L 26.54 -24.08 L 10.3 -24.08 L 10.3 -35.67 C 10.3 -37.86 8.57 -39.59 6.38 -39.59 C 4.2 -39.59 2.46 -37.86 2.46 -35.67 L 2.46 -3.53 C 2.46 -1.34 4.2 0.39 6.38 0.39 C 8.57 0.39 10.3 -1.34 10.3 -3.53 Z M 51.41 -3.53 L 51.41 -35.67 C 51.41 -37.86 49.67 -39.59 47.49 -39.59 C 45.3 -39.59 43.57 -37.86 43.57 -35.67 L 43.57 -3.53 C 43.57 -1.34 45.3 0.39 47.49 0.39 C 49.67 0.39 51.41 -1.34 51.41 -3.53 Z M 64.57 0 L 82.54 0 C 84.73 0 86.46 -1.74 86.46 -3.92 C 86.46 -6.1 84.73 -7.84 82.54 -7.84 L 68.43 -7.84 L 68.43 -16.24 L 80.3 -16.24 C 82.49 -16.24 84.22 -17.98 84.22 -20.16 C 84.22 -22.34 82.49 -24.08 80.3 -24.08 L 68.43 -24.08 L 68.43 -31.36 L 82.54 -31.36 C 84.73 -31.36 86.46 -33.1 86.46 -35.28 C 86.46 -37.46 84.73 -39.2 82.54 -39.2 L 64.57 -39.2 L 64.51 -39.2 C 62.33 -39.2 60.59 -37.46 60.59 -35.28 L 60.59 -3.92 C 60.59 -1.74 62.33 0 64.51 0 Z M 99.57 0 L 117.6 0 C 119.73 0 121.52 -1.74 121.52 -3.92 C 121.52 -6.1 119.78 -7.84 117.6 -7.84 L 103.49 -7.84 L 103.49 -35.67 C 103.49 -37.86 101.75 -39.59 99.57 -39.59 C 97.38 -39.59 95.65 -37.86 95.65 -35.67 L 95.65 -3.92 C 95.65 -1.74 97.38 0 99.57 0 Z M 146.61 -7.62 C 140 -7.62 134.62 -12.99 134.62 -19.6 C 134.62 -26.21 140 -31.58 146.61 -31.58 C 153.22 -31.58 158.59 -26.21 158.59 -19.6 C 158.59 -12.99 153.22 -7.62 146.61 -7.62 Z M 146.61 0.22 C 157.58 0.22 166.43 -8.62 166.43 -19.6 C 166.43 -30.58 157.58 -39.42 146.61 -39.42 C 135.63 -39.42 126.78 -30.58 126.78 -19.6 C 126.78 -8.62 135.63 0.22 146.61 0.22 Z M 183.46 -3.53 L 183.46 -16.24 L 193.93 -16.24 C 197.06 -16.24 199.7 -13.61 199.7 -10.47 L 199.7 -3.53 C 199.7 -1.34 201.43 0.39 203.62 0.39 C 205.8 0.39 207.54 -1.34 207.54 -3.53 L 207.54 -10.47 C 207.54 -15.01 205.3 -19.04 201.88 -21.5 C 203.67 -23.8 204.74 -26.71 204.74 -29.85 L 204.74 -35.67 C 204.74 -37.86 203 -39.59 200.82 -39.59 C 198.63 -39.59 196.9 -37.86 196.9 -35.67 L 196.9 -29.85 C 196.9 -26.71 194.26 -24.08 191.13 -24.08 L 183.46 -24.08 L 183.46 -35.67 C 183.46 -37.86 181.72 -39.59 179.54 -39.59 C 177.35 -39.59 175.62 -37.86 175.62 -35.67 L 175.62 -3.53 C 175.62 -1.34 177.35 0.39 179.54 0.39 C 181.72 0.39 183.46 -1.34 183.46 -3.53 Z M 224.56 -3.3 L 224.56 -10.64 L 241.98 -10.64 L 241.98 -3.3 C 241.98 -1.12 243.71 0.62 245.9 0.62 C 248.08 0.62 249.82 -1.12 249.82 -3.3 L 249.82 -22.85 C 249.82 -32.03 242.42 -39.42 233.3 -39.42 C 224.11 -39.42 216.72 -32.03 216.72 -22.85 L 216.72 -3.3 C 216.72 -1.12 218.46 0.62 220.64 0.62 C 222.82 0.62 224.56 -1.12 224.56 -3.3 Z M 224.56 -18.48 L 224.56 -22.85 C 224.56 -27.66 228.48 -31.58 233.3 -31.58 C 238.06 -31.58 241.98 -27.66 241.98 -22.85 L 241.98 -18.48 Z M 266.84 -3.53 L 266.84 -35.67 C 266.84 -37.86 265.1 -39.59 262.92 -39.59 C 260.74 -39.59 259 -37.86 259 -35.67 L 259 -3.53 C 259 -1.34 260.74 0.39 262.92 0.39 C 265.1 0.39 266.84 -1.34 266.84 -3.53 Z M 280.39 -31.36 L 293.83 -31.36 L 276.86 -7.17 C 274.74 -4.03 276.98 0 280.73 0 L 300.61 0 C 302.74 0 304.53 -1.74 304.53 -3.92 C 304.53 -6.1 302.79 -7.84 300.61 -7.84 L 286.94 -7.84 L 303.91 -32.03 C 306.04 -35.17 303.8 -39.2 300.05 -39.2 L 280.39 -39.2 C 278.21 -39.2 276.47 -37.46 276.47 -35.28 C 276.47 -33.1 278.21 -31.36 280.39 -31.36 Z M 317.91 0 L 335.89 0 C 338.07 0 339.81 -1.74 339.81 -3.92 C 339.81 -6.1 338.07 -7.84 335.89 -7.84 L 321.78 -7.84 L 321.78 -16.24 L 333.65 -16.24 C 335.83 -16.24 337.57 -17.98 337.57 -20.16 C 337.57 -22.34 335.83 -24.08 333.65 -24.08 L 321.78 -24.08 L 321.78 -31.36 L 335.89 -31.36 C 338.07 -31.36 339.81 -33.1 339.81 -35.28 C 339.81 -37.46 338.07 -39.2 335.89 -39.2 L 317.91 -39.2 L 317.86 -39.2 C 315.67 -39.2 313.94 -37.46 313.94 -35.28 L 313.94 -3.92 C 313.94 -1.74 315.67 0 317.86 0 Z M 356.83 -3.3 L 356.83 -22.85 C 356.83 -27.66 360.75 -31.58 365.57 -31.58 C 370.33 -31.58 374.25 -27.66 374.25 -22.85 L 374.25 -3.3 C 374.25 -1.12 375.98 0.62 378.17 0.62 C 380.35 0.62 382.09 -1.12 382.09 -3.3 L 382.09 -22.85 C 382.09 -32.03 374.7 -39.42 365.57 -39.42 C 356.38 -39.42 348.99 -32.03 348.99 -22.85 L 348.99 -3.3 C 348.99 -1.12 350.73 0.62 352.91 0.62 C 355.1 0.62 356.83 -1.12 356.83 -3.3 Z" stroke-linecap="round" />
</g>
</g>
</g>
</svg>